<mxfile host="app.diagrams.net" modified="2023-06-04T16:17:36.412Z" agent="Mozilla/5.0 (Windows NT 10.0; Win64; x64) AppleWebKit/537.36 (KHTML, like Gecko) Chrome/114.0.0.0 Safari/537.36" etag="n1mZse4c5pzDWP_sDLKq" version="21.3.2" type="device">
  <diagram id="YCGiLaqrCLwK7cTcz6eG" name="Страница 1">
    <mxGraphModel dx="773" dy="1915" grid="1" gridSize="10" guides="1" tooltips="1" connect="1" arrows="1" fold="1" page="1" pageScale="1" pageWidth="827" pageHeight="1169" math="0" shadow="0">
      <root>
        <mxCell id="0" />
        <mxCell id="1" parent="0" />
        <mxCell id="xcy9PEi7Db68LJFW1NeO-55" value="" style="group" parent="1" vertex="1" connectable="0">
          <mxGeometry x="1010" y="620" width="703" height="535" as="geometry" />
        </mxCell>
        <mxCell id="xcy9PEi7Db68LJFW1NeO-56" value="Інформаційна система" style="ellipse;whiteSpace=wrap;html=1;" parent="xcy9PEi7Db68LJFW1NeO-55" vertex="1">
          <mxGeometry x="190" y="150" width="104.5" height="70" as="geometry" />
        </mxCell>
        <mxCell id="xcy9PEi7Db68LJFW1NeO-59" value="Користувач" style="rounded=0;whiteSpace=wrap;html=1;" parent="xcy9PEi7Db68LJFW1NeO-55" vertex="1">
          <mxGeometry y="155" width="113.99999999999999" height="60" as="geometry" />
        </mxCell>
        <mxCell id="xcy9PEi7Db68LJFW1NeO-60" value="Адміністратор" style="rounded=0;whiteSpace=wrap;html=1;" parent="xcy9PEi7Db68LJFW1NeO-55" vertex="1">
          <mxGeometry x="360" y="150" width="113.99999999999999" height="60" as="geometry" />
        </mxCell>
        <mxCell id="xcy9PEi7Db68LJFW1NeO-61" value="" style="endArrow=classic;html=1;rounded=0;exitX=0.5;exitY=1;exitDx=0;exitDy=0;entryX=0.5;entryY=1;entryDx=0;entryDy=0;" parent="xcy9PEi7Db68LJFW1NeO-55" source="xcy9PEi7Db68LJFW1NeO-59" target="xcy9PEi7Db68LJFW1NeO-56" edge="1">
          <mxGeometry width="50" height="50" relative="1" as="geometry">
            <mxPoint x="332.5" y="280" as="sourcePoint" />
            <mxPoint x="380" y="230" as="targetPoint" />
            <Array as="points">
              <mxPoint x="152" y="260" />
            </Array>
          </mxGeometry>
        </mxCell>
        <mxCell id="xcy9PEi7Db68LJFW1NeO-62" value="" style="endArrow=classic;html=1;rounded=0;exitX=0.5;exitY=0;exitDx=0;exitDy=0;entryX=0.5;entryY=0;entryDx=0;entryDy=0;" parent="xcy9PEi7Db68LJFW1NeO-55" source="xcy9PEi7Db68LJFW1NeO-56" target="xcy9PEi7Db68LJFW1NeO-59" edge="1">
          <mxGeometry width="50" height="50" relative="1" as="geometry">
            <mxPoint x="66.5" y="224.9999999999999" as="sourcePoint" />
            <mxPoint x="251.74999999999997" y="229.9999999999999" as="targetPoint" />
            <Array as="points">
              <mxPoint x="152" y="110" />
            </Array>
          </mxGeometry>
        </mxCell>
        <mxCell id="xcy9PEi7Db68LJFW1NeO-63" value="" style="endArrow=classic;html=1;rounded=0;exitX=0.5;exitY=1;exitDx=0;exitDy=0;entryX=0.5;entryY=1;entryDx=0;entryDy=0;" parent="xcy9PEi7Db68LJFW1NeO-55" source="xcy9PEi7Db68LJFW1NeO-56" target="xcy9PEi7Db68LJFW1NeO-60" edge="1">
          <mxGeometry width="50" height="50" relative="1" as="geometry">
            <mxPoint x="76" y="234.9999999999999" as="sourcePoint" />
            <mxPoint x="418" y="220" as="targetPoint" />
            <Array as="points">
              <mxPoint x="322.99999999999994" y="260" />
            </Array>
          </mxGeometry>
        </mxCell>
        <mxCell id="xcy9PEi7Db68LJFW1NeO-64" value="" style="endArrow=classic;html=1;rounded=0;exitX=0.5;exitY=0;exitDx=0;exitDy=0;entryX=0.5;entryY=0;entryDx=0;entryDy=0;" parent="xcy9PEi7Db68LJFW1NeO-55" source="xcy9PEi7Db68LJFW1NeO-60" target="xcy9PEi7Db68LJFW1NeO-56" edge="1">
          <mxGeometry width="50" height="50" relative="1" as="geometry">
            <mxPoint x="418" y="150" as="sourcePoint" />
            <mxPoint x="270.75" y="249.9999999999999" as="targetPoint" />
            <Array as="points">
              <mxPoint x="322.99999999999994" y="110" />
            </Array>
          </mxGeometry>
        </mxCell>
        <mxCell id="xcy9PEi7Db68LJFW1NeO-69" value="Інформація для користувача" style="text;html=1;strokeColor=none;fillColor=none;align=center;verticalAlign=middle;whiteSpace=wrap;rounded=0;" parent="xcy9PEi7Db68LJFW1NeO-55" vertex="1">
          <mxGeometry x="114" y="60" width="85.49999999999999" height="30" as="geometry" />
        </mxCell>
        <mxCell id="xcy9PEi7Db68LJFW1NeO-70" value="Інформація від користувача" style="text;html=1;strokeColor=none;fillColor=none;align=center;verticalAlign=middle;whiteSpace=wrap;rounded=0;" parent="xcy9PEi7Db68LJFW1NeO-55" vertex="1">
          <mxGeometry x="113.99999999999999" y="270" width="85.49999999999999" height="30" as="geometry" />
        </mxCell>
        <mxCell id="xcy9PEi7Db68LJFW1NeO-71" value="Інформація для ІС" style="text;html=1;strokeColor=none;fillColor=none;align=center;verticalAlign=middle;whiteSpace=wrap;rounded=0;" parent="xcy9PEi7Db68LJFW1NeO-55" vertex="1">
          <mxGeometry x="285" y="60" width="85.49999999999999" height="30" as="geometry" />
        </mxCell>
        <mxCell id="xcy9PEi7Db68LJFW1NeO-72" value="Інформація від ІС" style="text;html=1;strokeColor=none;fillColor=none;align=center;verticalAlign=middle;whiteSpace=wrap;rounded=0;" parent="xcy9PEi7Db68LJFW1NeO-55" vertex="1">
          <mxGeometry x="285" y="270" width="85.49999999999999" height="30" as="geometry" />
        </mxCell>
        <mxCell id="xcy9PEi7Db68LJFW1NeO-77" value="Якщо користувач, не є клієнтом компанії, а є самостійним власником ПП, то він отримує додаток та можливості адміністратора" style="shape=note;size=20;whiteSpace=wrap;html=1;" parent="xcy9PEi7Db68LJFW1NeO-55" vertex="1">
          <mxGeometry x="140" y="435" width="180.49999999999997" height="100" as="geometry" />
        </mxCell>
        <mxCell id="xcy9PEi7Db68LJFW1NeO-78" value="" style="endArrow=none;html=1;rounded=0;entryX=0.5;entryY=1;entryDx=0;entryDy=0;exitX=0;exitY=0;exitDx=0;exitDy=0;exitPerimeter=0;dashed=1;" parent="xcy9PEi7Db68LJFW1NeO-55" source="xcy9PEi7Db68LJFW1NeO-77" target="xcy9PEi7Db68LJFW1NeO-59" edge="1">
          <mxGeometry width="50" height="50" relative="1" as="geometry">
            <mxPoint x="332.5" y="350" as="sourcePoint" />
            <mxPoint x="380" y="300" as="targetPoint" />
          </mxGeometry>
        </mxCell>
        <mxCell id="xcy9PEi7Db68LJFW1NeO-79" value="" style="endArrow=none;html=1;rounded=0;entryX=0.5;entryY=1;entryDx=0;entryDy=0;exitX=0;exitY=0;exitDx=180.49999999999997;exitDy=60;exitPerimeter=0;dashed=1;" parent="xcy9PEi7Db68LJFW1NeO-55" source="xcy9PEi7Db68LJFW1NeO-77" target="xcy9PEi7Db68LJFW1NeO-60" edge="1">
          <mxGeometry width="50" height="50" relative="1" as="geometry">
            <mxPoint x="137.74999999999997" y="445" as="sourcePoint" />
            <mxPoint x="66.5" y="224.9999999999999" as="targetPoint" />
          </mxGeometry>
        </mxCell>
        <mxCell id="Zu8HxIQrCbDEoel7n-pE-4" value="Користувач" style="rounded=0;whiteSpace=wrap;html=1;" parent="1" vertex="1">
          <mxGeometry x="840" y="257.5" width="113.99999999999999" height="60" as="geometry" />
        </mxCell>
        <mxCell id="Zu8HxIQrCbDEoel7n-pE-27" value="" style="endArrow=none;html=1;rounded=0;entryX=0.5;entryY=1;entryDx=0;entryDy=0;exitX=0;exitY=0;exitDx=85;exitDy=0;exitPerimeter=0;dashed=1;" parent="1" source="Zu8HxIQrCbDEoel7n-pE-26" target="Zu8HxIQrCbDEoel7n-pE-4" edge="1">
          <mxGeometry x="0.183" y="34" width="50" height="50" relative="1" as="geometry">
            <mxPoint x="1332.5" y="370" as="sourcePoint" />
            <mxPoint x="1380" y="320" as="targetPoint" />
            <Array as="points">
              <mxPoint x="860" y="440" />
            </Array>
            <mxPoint x="7" y="17" as="offset" />
          </mxGeometry>
        </mxCell>
        <mxCell id="Zu8HxIQrCbDEoel7n-pE-10" value="" style="endArrow=classic;html=1;rounded=0;exitX=0;exitY=0.5;exitDx=0;exitDy=0;entryX=0.5;entryY=0;entryDx=0;entryDy=0;" parent="1" source="xcy9PEi7Db68LJFW1NeO-114" target="Zu8HxIQrCbDEoel7n-pE-4" edge="1">
          <mxGeometry width="50" height="50" relative="1" as="geometry">
            <mxPoint x="1242.2499999999998" y="170" as="sourcePoint" />
            <mxPoint x="1251.75" y="249.9999999999999" as="targetPoint" />
            <Array as="points">
              <mxPoint x="960" y="180" />
            </Array>
          </mxGeometry>
        </mxCell>
        <mxCell id="Zu8HxIQrCbDEoel7n-pE-9" value="" style="endArrow=classic;html=1;rounded=0;exitX=1;exitY=0;exitDx=0;exitDy=0;entryX=0;entryY=1;entryDx=0;entryDy=0;" parent="1" source="Zu8HxIQrCbDEoel7n-pE-4" target="xcy9PEi7Db68LJFW1NeO-114" edge="1">
          <mxGeometry width="50" height="50" relative="1" as="geometry">
            <mxPoint x="1332.5" y="300" as="sourcePoint" />
            <mxPoint x="1242.2499999999998" y="240" as="targetPoint" />
            <Array as="points">
              <mxPoint x="1000" y="250" />
            </Array>
          </mxGeometry>
        </mxCell>
        <mxCell id="Zu8HxIQrCbDEoel7n-pE-24" value="Форма авторизації/реєстрації" style="text;html=1;strokeColor=none;fillColor=none;align=center;verticalAlign=middle;whiteSpace=wrap;rounded=0;container=0;" parent="1" vertex="1">
          <mxGeometry x="910" y="140" width="85.49999999999999" height="30" as="geometry" />
        </mxCell>
        <mxCell id="Zu8HxIQrCbDEoel7n-pE-2" value="Оновлення даних у БД" style="ellipse;whiteSpace=wrap;html=1;container=0;" parent="1" vertex="1">
          <mxGeometry x="1370.5" y="170" width="95" height="70" as="geometry" />
        </mxCell>
        <mxCell id="Zu8HxIQrCbDEoel7n-pE-5" value="Адміністратор" style="rounded=0;whiteSpace=wrap;html=1;container=0;" parent="1" vertex="1">
          <mxGeometry x="1475" y="360" width="113.99999999999999" height="60" as="geometry" />
        </mxCell>
        <mxCell id="Zu8HxIQrCbDEoel7n-pE-11" value="" style="endArrow=classic;html=1;rounded=0;entryX=0;entryY=0.5;entryDx=0;entryDy=0;" parent="1" target="Zu8HxIQrCbDEoel7n-pE-2" edge="1">
          <mxGeometry width="50" height="50" relative="1" as="geometry">
            <mxPoint x="1270" y="230" as="sourcePoint" />
            <mxPoint x="1261.25" y="259.9999999999999" as="targetPoint" />
            <Array as="points">
              <mxPoint x="1320" y="240" />
            </Array>
          </mxGeometry>
        </mxCell>
        <mxCell id="Zu8HxIQrCbDEoel7n-pE-12" value="" style="endArrow=classic;html=1;rounded=0;exitX=0;exitY=0.5;exitDx=0;exitDy=0;entryX=1;entryY=0;entryDx=0;entryDy=0;" parent="1" source="Zu8HxIQrCbDEoel7n-pE-2" target="xcy9PEi7Db68LJFW1NeO-83" edge="1">
          <mxGeometry width="50" height="50" relative="1" as="geometry">
            <mxPoint x="1085.5" y="264.9999999999999" as="sourcePoint" />
            <mxPoint x="1242.2499999999998" y="170" as="targetPoint" />
            <Array as="points">
              <mxPoint x="1323" y="170" />
            </Array>
          </mxGeometry>
        </mxCell>
        <mxCell id="Zu8HxIQrCbDEoel7n-pE-13" value="" style="endArrow=classic;html=1;rounded=0;exitX=0;exitY=1;exitDx=0;exitDy=0;entryX=1;entryY=0;entryDx=0;entryDy=0;" parent="1" source="xcy9PEi7Db68LJFW1NeO-111" target="Zu8HxIQrCbDEoel7n-pE-2" edge="1">
          <mxGeometry width="50" height="50" relative="1" as="geometry">
            <mxPoint x="1532.0000000000027" y="55" as="sourcePoint" />
            <mxPoint x="1280.25" y="279.9999999999999" as="targetPoint" />
            <Array as="points">
              <mxPoint x="1530" y="140" />
            </Array>
          </mxGeometry>
        </mxCell>
        <mxCell id="Zu8HxIQrCbDEoel7n-pE-15" value="" style="endArrow=classic;html=1;rounded=0;exitX=0.5;exitY=0;exitDx=0;exitDy=0;entryX=1;entryY=1;entryDx=0;entryDy=0;" parent="1" source="Zu8HxIQrCbDEoel7n-pE-5" target="Zu8HxIQrCbDEoel7n-pE-2" edge="1">
          <mxGeometry width="50" height="50" relative="1" as="geometry">
            <mxPoint x="1114" y="294.9999999999999" as="sourcePoint" />
            <mxPoint x="1299.25" y="299.9999999999999" as="targetPoint" />
            <Array as="points">
              <mxPoint x="1510" y="280" />
            </Array>
          </mxGeometry>
        </mxCell>
        <mxCell id="Zu8HxIQrCbDEoel7n-pE-17" value="Інформація для користувача" style="text;html=1;strokeColor=none;fillColor=none;align=center;verticalAlign=middle;whiteSpace=wrap;rounded=0;container=0;" parent="1" vertex="1">
          <mxGeometry x="954" y="-50" width="85.49999999999999" height="30" as="geometry" />
        </mxCell>
        <mxCell id="Zu8HxIQrCbDEoel7n-pE-18" value="Інформація від користувача" style="text;html=1;strokeColor=none;fillColor=none;align=center;verticalAlign=middle;whiteSpace=wrap;rounded=0;container=0;" parent="1" vertex="1">
          <mxGeometry x="1790" y="250" width="85.49999999999999" height="30" as="geometry" />
        </mxCell>
        <mxCell id="Zu8HxIQrCbDEoel7n-pE-19" value="Інформація для ІС" style="text;html=1;strokeColor=none;fillColor=none;align=center;verticalAlign=middle;whiteSpace=wrap;rounded=0;container=0;" parent="1" vertex="1">
          <mxGeometry x="1115" y="-50" width="85.49999999999999" height="30" as="geometry" />
        </mxCell>
        <mxCell id="Zu8HxIQrCbDEoel7n-pE-20" value="Особисті дані" style="text;html=1;strokeColor=none;fillColor=none;align=center;verticalAlign=middle;whiteSpace=wrap;rounded=0;container=0;" parent="1" vertex="1">
          <mxGeometry x="980" y="250" width="85.49999999999999" height="30" as="geometry" />
        </mxCell>
        <mxCell id="Zu8HxIQrCbDEoel7n-pE-21" value="Інформація для адміністратора" style="text;html=1;strokeColor=none;fillColor=none;align=center;verticalAlign=middle;whiteSpace=wrap;rounded=0;container=0;" parent="1" vertex="1">
          <mxGeometry x="1790" y="180" width="85.49999999999999" height="30" as="geometry" />
        </mxCell>
        <mxCell id="Zu8HxIQrCbDEoel7n-pE-23" value="Інформація про користувача" style="text;html=1;strokeColor=none;fillColor=none;align=center;verticalAlign=middle;whiteSpace=wrap;rounded=0;container=0;" parent="1" vertex="1">
          <mxGeometry x="1510" y="260" width="93.5" height="30" as="geometry" />
        </mxCell>
        <mxCell id="Zu8HxIQrCbDEoel7n-pE-25" value="Інформація від ЕС" style="text;html=1;strokeColor=none;fillColor=none;align=center;verticalAlign=middle;whiteSpace=wrap;rounded=0;container=0;" parent="1" vertex="1">
          <mxGeometry x="1536.5" y="120" width="85.49999999999999" height="30" as="geometry" />
        </mxCell>
        <mxCell id="Zu8HxIQrCbDEoel7n-pE-26" value="Якщо користувач, не є клієнтом компанії, а є самостійним власником ПП, то він отримує додаток та можливості адміністратора" style="shape=note;size=20;whiteSpace=wrap;html=1;container=0;" parent="1" vertex="1">
          <mxGeometry x="972.5" y="535" width="180.49999999999997" height="100" as="geometry" />
        </mxCell>
        <mxCell id="Zu8HxIQrCbDEoel7n-pE-28" value="" style="endArrow=none;html=1;rounded=0;entryX=0;entryY=1;entryDx=0;entryDy=0;exitX=0;exitY=0;exitDx=190;exitDy=60;exitPerimeter=0;dashed=1;" parent="1" source="Zu8HxIQrCbDEoel7n-pE-26" target="Zu8HxIQrCbDEoel7n-pE-5" edge="1">
          <mxGeometry width="50" height="50" relative="1" as="geometry">
            <mxPoint x="1137.75" y="465" as="sourcePoint" />
            <mxPoint x="1066.5" y="244.9999999999999" as="targetPoint" />
          </mxGeometry>
        </mxCell>
        <mxCell id="xcy9PEi7Db68LJFW1NeO-80" value="" style="endArrow=none;html=1;rounded=0;" parent="1" edge="1">
          <mxGeometry width="50" height="50" relative="1" as="geometry">
            <mxPoint x="1180" y="188.82" as="sourcePoint" />
            <mxPoint x="1300" y="188.82" as="targetPoint" />
          </mxGeometry>
        </mxCell>
        <mxCell id="xcy9PEi7Db68LJFW1NeO-81" value="" style="endArrow=none;html=1;rounded=0;" parent="1" edge="1">
          <mxGeometry width="50" height="50" relative="1" as="geometry">
            <mxPoint x="1720" y="530" as="sourcePoint" />
            <mxPoint x="1770" y="480" as="targetPoint" />
          </mxGeometry>
        </mxCell>
        <mxCell id="xcy9PEi7Db68LJFW1NeO-83" value="Додаток" style="text;html=1;strokeColor=none;fillColor=none;align=center;verticalAlign=middle;whiteSpace=wrap;rounded=0;container=0;" parent="1" vertex="1">
          <mxGeometry x="1212" y="188.82" width="60" height="40" as="geometry" />
        </mxCell>
        <mxCell id="xcy9PEi7Db68LJFW1NeO-82" value="Text" style="text;html=1;strokeColor=none;fillColor=none;align=center;verticalAlign=middle;whiteSpace=wrap;rounded=0;container=0;" parent="1" vertex="1">
          <mxGeometry x="1802.75" y="120" width="60" height="30" as="geometry" />
        </mxCell>
        <mxCell id="xcy9PEi7Db68LJFW1NeO-109" value="" style="endArrow=none;html=1;rounded=0;" parent="1" edge="1">
          <mxGeometry width="50" height="50" relative="1" as="geometry">
            <mxPoint x="1180" y="228.82" as="sourcePoint" />
            <mxPoint x="1300" y="228.82" as="targetPoint" />
          </mxGeometry>
        </mxCell>
        <mxCell id="xcy9PEi7Db68LJFW1NeO-110" value="" style="endArrow=none;html=1;rounded=0;" parent="1" edge="1">
          <mxGeometry width="50" height="50" relative="1" as="geometry">
            <mxPoint x="1532" y="34.40999999999997" as="sourcePoint" />
            <mxPoint x="1652" y="34.40999999999997" as="targetPoint" />
          </mxGeometry>
        </mxCell>
        <mxCell id="xcy9PEi7Db68LJFW1NeO-111" value="Енергетична система" style="text;html=1;strokeColor=none;fillColor=none;align=center;verticalAlign=middle;whiteSpace=wrap;rounded=0;container=0;" parent="1" vertex="1">
          <mxGeometry x="1562" y="34.889999999999986" width="60" height="40" as="geometry" />
        </mxCell>
        <mxCell id="xcy9PEi7Db68LJFW1NeO-112" value="" style="endArrow=none;html=1;rounded=0;" parent="1" edge="1">
          <mxGeometry width="50" height="50" relative="1" as="geometry">
            <mxPoint x="1532" y="74.40999999999997" as="sourcePoint" />
            <mxPoint x="1652" y="74.40999999999997" as="targetPoint" />
          </mxGeometry>
        </mxCell>
        <mxCell id="xcy9PEi7Db68LJFW1NeO-114" value="Проходження авторизації/реєстрації" style="ellipse;whiteSpace=wrap;html=1;container=0;" parent="1" vertex="1">
          <mxGeometry x="1020" y="160" width="95" height="70" as="geometry" />
        </mxCell>
        <mxCell id="xcy9PEi7Db68LJFW1NeO-115" value="" style="endArrow=classic;html=1;rounded=0;exitX=0;exitY=0;exitDx=0;exitDy=0;entryX=0.5;entryY=0;entryDx=0;entryDy=0;" parent="1" source="xcy9PEi7Db68LJFW1NeO-83" target="xcy9PEi7Db68LJFW1NeO-114" edge="1">
          <mxGeometry width="50" height="50" relative="1" as="geometry">
            <mxPoint x="1218.500000000001" y="173.82" as="sourcePoint" />
            <mxPoint x="1120" y="157.63999999999993" as="targetPoint" />
            <Array as="points">
              <mxPoint x="1160" y="150" />
            </Array>
          </mxGeometry>
        </mxCell>
        <mxCell id="xcy9PEi7Db68LJFW1NeO-116" value="" style="endArrow=classic;html=1;rounded=0;exitX=0.5;exitY=1;exitDx=0;exitDy=0;" parent="1" source="xcy9PEi7Db68LJFW1NeO-114" edge="1">
          <mxGeometry width="50" height="50" relative="1" as="geometry">
            <mxPoint x="1111.5" y="285" as="sourcePoint" />
            <mxPoint x="1212" y="230" as="targetPoint" />
            <Array as="points">
              <mxPoint x="1130" y="250" />
            </Array>
          </mxGeometry>
        </mxCell>
        <mxCell id="xcy9PEi7Db68LJFW1NeO-120" value="Пошук інформації" style="ellipse;whiteSpace=wrap;html=1;container=0;" parent="1" vertex="1">
          <mxGeometry x="1050" y="355" width="95" height="70" as="geometry" />
        </mxCell>
        <mxCell id="xcy9PEi7Db68LJFW1NeO-121" value="" style="endArrow=classic;html=1;rounded=0;exitX=0.5;exitY=1;exitDx=0;exitDy=0;entryX=0;entryY=1;entryDx=0;entryDy=0;" parent="1" source="Zu8HxIQrCbDEoel7n-pE-4" target="xcy9PEi7Db68LJFW1NeO-120" edge="1">
          <mxGeometry width="50" height="50" relative="1" as="geometry">
            <mxPoint x="1077.5" y="240" as="sourcePoint" />
            <mxPoint x="1222" y="240" as="targetPoint" />
            <Array as="points">
              <mxPoint x="960" y="400" />
            </Array>
          </mxGeometry>
        </mxCell>
        <mxCell id="xcy9PEi7Db68LJFW1NeO-122" value="" style="endArrow=classic;html=1;rounded=0;exitX=0;exitY=0;exitDx=0;exitDy=0;entryX=1;entryY=1;entryDx=0;entryDy=0;" parent="1" source="xcy9PEi7Db68LJFW1NeO-120" target="Zu8HxIQrCbDEoel7n-pE-4" edge="1">
          <mxGeometry width="50" height="50" relative="1" as="geometry">
            <mxPoint x="1222" y="198.81999999999994" as="sourcePoint" />
            <mxPoint x="1077.5" y="170" as="targetPoint" />
            <Array as="points">
              <mxPoint x="1020" y="320" />
            </Array>
          </mxGeometry>
        </mxCell>
        <mxCell id="xcy9PEi7Db68LJFW1NeO-123" value="знайдена інформація" style="text;html=1;strokeColor=none;fillColor=none;align=center;verticalAlign=middle;whiteSpace=wrap;rounded=0;container=0;" parent="1" vertex="1">
          <mxGeometry x="1029.5" y="310" width="85.49999999999999" height="30" as="geometry" />
        </mxCell>
        <mxCell id="xcy9PEi7Db68LJFW1NeO-124" value="Дата або номер" style="text;html=1;strokeColor=none;fillColor=none;align=center;verticalAlign=middle;whiteSpace=wrap;rounded=0;container=0;" parent="1" vertex="1">
          <mxGeometry x="900" y="400" width="85.49999999999999" height="30" as="geometry" />
        </mxCell>
        <mxCell id="xcy9PEi7Db68LJFW1NeO-125" value="" style="endArrow=classic;html=1;rounded=0;exitX=1;exitY=0.5;exitDx=0;exitDy=0;" parent="1" source="xcy9PEi7Db68LJFW1NeO-120" edge="1">
          <mxGeometry width="50" height="50" relative="1" as="geometry">
            <mxPoint x="1077.5" y="240" as="sourcePoint" />
            <mxPoint x="1210" y="230" as="targetPoint" />
            <Array as="points">
              <mxPoint x="1200" y="320" />
            </Array>
          </mxGeometry>
        </mxCell>
        <mxCell id="xcy9PEi7Db68LJFW1NeO-126" value="" style="endArrow=classic;html=1;rounded=0;entryX=1;entryY=0;entryDx=0;entryDy=0;" parent="1" target="xcy9PEi7Db68LJFW1NeO-120" edge="1">
          <mxGeometry width="50" height="50" relative="1" as="geometry">
            <mxPoint x="1210" y="230" as="sourcePoint" />
            <mxPoint x="1077.5" y="170" as="targetPoint" />
            <Array as="points">
              <mxPoint x="1160" y="280" />
            </Array>
          </mxGeometry>
        </mxCell>
        <mxCell id="xcy9PEi7Db68LJFW1NeO-135" style="edgeStyle=orthogonalEdgeStyle;rounded=0;orthogonalLoop=1;jettySize=auto;html=1;entryX=0.5;entryY=0;entryDx=0;entryDy=0;" parent="1" source="xcy9PEi7Db68LJFW1NeO-128" target="xcy9PEi7Db68LJFW1NeO-129" edge="1">
          <mxGeometry relative="1" as="geometry" />
        </mxCell>
        <mxCell id="xcy9PEi7Db68LJFW1NeO-128" value="Відкрити додаток" style="rounded=1;whiteSpace=wrap;html=1;" parent="1" vertex="1">
          <mxGeometry x="2280" y="120" width="120" height="60" as="geometry" />
        </mxCell>
        <mxCell id="xcy9PEi7Db68LJFW1NeO-136" style="edgeStyle=orthogonalEdgeStyle;rounded=0;orthogonalLoop=1;jettySize=auto;html=1;entryX=0.477;entryY=0.847;entryDx=0;entryDy=0;entryPerimeter=0;" parent="1" source="xcy9PEi7Db68LJFW1NeO-129" target="xcy9PEi7Db68LJFW1NeO-131" edge="1">
          <mxGeometry relative="1" as="geometry" />
        </mxCell>
        <mxCell id="xcy9PEi7Db68LJFW1NeO-129" value="Відображення вікна авторизації" style="rounded=1;whiteSpace=wrap;html=1;" parent="1" vertex="1">
          <mxGeometry x="2280" y="210" width="120" height="60" as="geometry" />
        </mxCell>
        <mxCell id="xcy9PEi7Db68LJFW1NeO-137" style="edgeStyle=orthogonalEdgeStyle;rounded=0;orthogonalLoop=1;jettySize=auto;html=1;exitX=0.25;exitY=0.5;exitDx=0;exitDy=0;exitPerimeter=0;entryX=0.5;entryY=0;entryDx=0;entryDy=0;" parent="1" source="xcy9PEi7Db68LJFW1NeO-131" target="xcy9PEi7Db68LJFW1NeO-132" edge="1">
          <mxGeometry relative="1" as="geometry" />
        </mxCell>
        <mxCell id="xcy9PEi7Db68LJFW1NeO-148" style="edgeStyle=orthogonalEdgeStyle;rounded=0;orthogonalLoop=1;jettySize=auto;html=1;exitX=0.75;exitY=0.5;exitDx=0;exitDy=0;exitPerimeter=0;entryX=0.772;entryY=0.561;entryDx=0;entryDy=0;entryPerimeter=0;" parent="1" source="xcy9PEi7Db68LJFW1NeO-131" target="xcy9PEi7Db68LJFW1NeO-145" edge="1">
          <mxGeometry relative="1" as="geometry" />
        </mxCell>
        <mxCell id="xcy9PEi7Db68LJFW1NeO-131" value="" style="line;strokeWidth=2;html=1;" parent="1" vertex="1">
          <mxGeometry x="2240" y="290" width="210" height="10" as="geometry" />
        </mxCell>
        <mxCell id="xcy9PEi7Db68LJFW1NeO-146" style="edgeStyle=orthogonalEdgeStyle;rounded=0;orthogonalLoop=1;jettySize=auto;html=1;exitX=0.5;exitY=1;exitDx=0;exitDy=0;entryX=0.25;entryY=0.5;entryDx=0;entryDy=0;entryPerimeter=0;" parent="1" source="xcy9PEi7Db68LJFW1NeO-132" target="xcy9PEi7Db68LJFW1NeO-145" edge="1">
          <mxGeometry relative="1" as="geometry" />
        </mxCell>
        <mxCell id="xcy9PEi7Db68LJFW1NeO-132" value="Відображення вікна реєстрації" style="rounded=1;whiteSpace=wrap;html=1;" parent="1" vertex="1">
          <mxGeometry x="2230" y="317.5" width="120" height="60" as="geometry" />
        </mxCell>
        <mxCell id="xcy9PEi7Db68LJFW1NeO-166" style="edgeStyle=orthogonalEdgeStyle;rounded=0;orthogonalLoop=1;jettySize=auto;html=1;entryX=0.499;entryY=0.435;entryDx=0;entryDy=0;entryPerimeter=0;" parent="1" source="xcy9PEi7Db68LJFW1NeO-133" target="xcy9PEi7Db68LJFW1NeO-134" edge="1">
          <mxGeometry relative="1" as="geometry" />
        </mxCell>
        <mxCell id="xcy9PEi7Db68LJFW1NeO-133" value="Відображення вікна профілю" style="rounded=1;whiteSpace=wrap;html=1;" parent="1" vertex="1">
          <mxGeometry x="2280" y="440" width="120" height="60" as="geometry" />
        </mxCell>
        <mxCell id="xcy9PEi7Db68LJFW1NeO-167" style="edgeStyle=orthogonalEdgeStyle;rounded=0;orthogonalLoop=1;jettySize=auto;html=1;entryX=0.5;entryY=0;entryDx=0;entryDy=0;" parent="1" source="xcy9PEi7Db68LJFW1NeO-134" target="xcy9PEi7Db68LJFW1NeO-141" edge="1">
          <mxGeometry relative="1" as="geometry">
            <Array as="points">
              <mxPoint x="2020" y="550" />
              <mxPoint x="2020" y="550" />
            </Array>
          </mxGeometry>
        </mxCell>
        <mxCell id="xcy9PEi7Db68LJFW1NeO-168" style="edgeStyle=orthogonalEdgeStyle;rounded=0;orthogonalLoop=1;jettySize=auto;html=1;entryX=0.5;entryY=0;entryDx=0;entryDy=0;" parent="1" source="xcy9PEi7Db68LJFW1NeO-134" target="xcy9PEi7Db68LJFW1NeO-142" edge="1">
          <mxGeometry relative="1" as="geometry">
            <Array as="points">
              <mxPoint x="2290" y="560" />
              <mxPoint x="2290" y="560" />
            </Array>
          </mxGeometry>
        </mxCell>
        <mxCell id="xcy9PEi7Db68LJFW1NeO-170" style="edgeStyle=orthogonalEdgeStyle;rounded=0;orthogonalLoop=1;jettySize=auto;html=1;entryX=0.5;entryY=0;entryDx=0;entryDy=0;" parent="1" source="xcy9PEi7Db68LJFW1NeO-134" target="xcy9PEi7Db68LJFW1NeO-149" edge="1">
          <mxGeometry relative="1" as="geometry">
            <Array as="points">
              <mxPoint x="2700" y="550" />
              <mxPoint x="2700" y="550" />
            </Array>
          </mxGeometry>
        </mxCell>
        <mxCell id="xcy9PEi7Db68LJFW1NeO-171" style="edgeStyle=orthogonalEdgeStyle;rounded=0;orthogonalLoop=1;jettySize=auto;html=1;entryX=0.5;entryY=0;entryDx=0;entryDy=0;" parent="1" source="xcy9PEi7Db68LJFW1NeO-134" target="xcy9PEi7Db68LJFW1NeO-143" edge="1">
          <mxGeometry relative="1" as="geometry">
            <Array as="points">
              <mxPoint x="2541" y="545" />
              <mxPoint x="2541" y="545" />
            </Array>
          </mxGeometry>
        </mxCell>
        <mxCell id="xcy9PEi7Db68LJFW1NeO-134" value="" style="line;strokeWidth=2;html=1;" parent="1" vertex="1">
          <mxGeometry x="1940" y="540" width="800" height="10" as="geometry" />
        </mxCell>
        <mxCell id="xcy9PEi7Db68LJFW1NeO-173" style="edgeStyle=orthogonalEdgeStyle;rounded=0;orthogonalLoop=1;jettySize=auto;html=1;entryX=0.5;entryY=0;entryDx=0;entryDy=0;" parent="1" source="xcy9PEi7Db68LJFW1NeO-141" target="xcy9PEi7Db68LJFW1NeO-160" edge="1">
          <mxGeometry relative="1" as="geometry" />
        </mxCell>
        <mxCell id="xcy9PEi7Db68LJFW1NeO-141" value="Відкриття вікна продуктивності" style="rounded=1;whiteSpace=wrap;html=1;" parent="1" vertex="1">
          <mxGeometry x="1960" y="585" width="120" height="60" as="geometry" />
        </mxCell>
        <mxCell id="xcy9PEi7Db68LJFW1NeO-172" style="edgeStyle=orthogonalEdgeStyle;rounded=0;orthogonalLoop=1;jettySize=auto;html=1;entryX=0.485;entryY=0.729;entryDx=0;entryDy=0;entryPerimeter=0;" parent="1" source="xcy9PEi7Db68LJFW1NeO-142" target="xcy9PEi7Db68LJFW1NeO-150" edge="1">
          <mxGeometry relative="1" as="geometry" />
        </mxCell>
        <mxCell id="xcy9PEi7Db68LJFW1NeO-142" value="Відкриття вікна налаштування&lt;span style=&quot;color: rgba(0, 0, 0, 0); font-family: monospace; font-size: 0px; text-align: start;&quot;&gt;%3CmxGraphModel%3E%3Croot%3E%3CmxCell%20id%3D%220%22%2F%3E%3CmxCell%20id%3D%221%22%20parent%3D%220%22%2F%3E%3CmxCell%20id%3D%222%22%20value%3D%22%D0%92%D1%96%D0%B4%D0%BA%D1%80%D0%B8%D1%82%D1%82%D1%8F%20%D0%B2%D1%96%D0%BA%D0%BD%D0%B0%20%D0%BF%D1%80%D0%BE%D0%B4%D1%83%D0%BA%D1%82%D0%B8%D0%B2%D0%BD%D0%BE%D1%81%D1%82%D1%96%22%20style%3D%22rounded%3D1%3BwhiteSpace%3Dwrap%3Bhtml%3D1%3B%22%20vertex%3D%221%22%20parent%3D%221%22%3E%3CmxGeometry%20x%3D%222130%22%20y%3D%22610%22%20width%3D%22120%22%20height%3D%2260%22%20as%3D%22geometry%22%2F%3E%3C%2FmxCell%3E%3C%2Froot%3E%3C%2FmxGraphModel%3E&lt;/span&gt;" style="rounded=1;whiteSpace=wrap;html=1;" parent="1" vertex="1">
          <mxGeometry x="2230" y="585" width="120" height="60" as="geometry" />
        </mxCell>
        <mxCell id="xcy9PEi7Db68LJFW1NeO-185" style="edgeStyle=orthogonalEdgeStyle;rounded=0;orthogonalLoop=1;jettySize=auto;html=1;entryX=0.5;entryY=0;entryDx=0;entryDy=0;" parent="1" source="xcy9PEi7Db68LJFW1NeO-143" target="xcy9PEi7Db68LJFW1NeO-161" edge="1">
          <mxGeometry relative="1" as="geometry" />
        </mxCell>
        <mxCell id="xcy9PEi7Db68LJFW1NeO-143" value="Пошук інформації" style="rounded=1;whiteSpace=wrap;html=1;" parent="1" vertex="1">
          <mxGeometry x="2481" y="585" width="120" height="60" as="geometry" />
        </mxCell>
        <mxCell id="xcy9PEi7Db68LJFW1NeO-147" style="edgeStyle=orthogonalEdgeStyle;rounded=0;orthogonalLoop=1;jettySize=auto;html=1;entryX=0.5;entryY=0;entryDx=0;entryDy=0;" parent="1" source="xcy9PEi7Db68LJFW1NeO-145" target="xcy9PEi7Db68LJFW1NeO-133" edge="1">
          <mxGeometry relative="1" as="geometry" />
        </mxCell>
        <mxCell id="xcy9PEi7Db68LJFW1NeO-145" value="" style="line;strokeWidth=2;html=1;" parent="1" vertex="1">
          <mxGeometry x="2235" y="400" width="210" height="10" as="geometry" />
        </mxCell>
        <mxCell id="xcy9PEi7Db68LJFW1NeO-187" style="edgeStyle=orthogonalEdgeStyle;rounded=0;orthogonalLoop=1;jettySize=auto;html=1;entryX=0.5;entryY=0;entryDx=0;entryDy=0;" parent="1" source="xcy9PEi7Db68LJFW1NeO-149" target="xcy9PEi7Db68LJFW1NeO-151" edge="1">
          <mxGeometry relative="1" as="geometry" />
        </mxCell>
        <mxCell id="xcy9PEi7Db68LJFW1NeO-149" value="Відкриття вікна додати користувача&lt;span style=&quot;color: rgba(0, 0, 0, 0); font-family: monospace; font-size: 0px; text-align: start;&quot;&gt;%3CmxGraphModel%3E%3Croot%3E%3CmxCell%20id%3D%220%22%2F%3E%3CmxCell%20id%3D%221%22%20parent%3D%220%22%2F%3E%3CmxCell%20id%3D%222%22%20value%3D%22%D0%92%D1%96%D0%B4%D0%BA%D1%80%D0%B8%D1%82%D1%82%D1%8F%20%D0%B2%D1%96%D0%BA%D0%BD%D0%B0%20%D0%BF%D1%80%D0%BE%D0%B4%D1%83%D0%BA%D1%82%D0%B8%D0%B2%D0%BD%D0%BE%D1%81%D1%82%D1%96%22%20style%3D%22rounded%3D1%3BwhiteSpace%3Dwrap%3Bhtml%3D1%3B%22%20vertex%3D%221%22%20parent%3D%221%22%3E%3CmxGeometry%20x%3D%222130%22%20y%3D%22610%22%20width%3D%22120%22%20height%3D%2260%22%20as%3D%22geometry%22%2F%3E%3C%2FmxCell%3E%3C%2Froot%3E%3C%2FmxGraphModel%3E&lt;/span&gt;" style="rounded=1;whiteSpace=wrap;html=1;" parent="1" vertex="1">
          <mxGeometry x="2640" y="585" width="120" height="60" as="geometry" />
        </mxCell>
        <mxCell id="xcy9PEi7Db68LJFW1NeO-176" style="edgeStyle=orthogonalEdgeStyle;rounded=0;orthogonalLoop=1;jettySize=auto;html=1;entryX=0.5;entryY=0;entryDx=0;entryDy=0;" parent="1" source="xcy9PEi7Db68LJFW1NeO-150" target="xcy9PEi7Db68LJFW1NeO-155" edge="1">
          <mxGeometry relative="1" as="geometry">
            <Array as="points">
              <mxPoint x="2153" y="710" />
              <mxPoint x="2153" y="710" />
            </Array>
          </mxGeometry>
        </mxCell>
        <mxCell id="xcy9PEi7Db68LJFW1NeO-177" style="edgeStyle=orthogonalEdgeStyle;rounded=0;orthogonalLoop=1;jettySize=auto;html=1;entryX=0.5;entryY=0;entryDx=0;entryDy=0;" parent="1" source="xcy9PEi7Db68LJFW1NeO-150" target="xcy9PEi7Db68LJFW1NeO-154" edge="1">
          <mxGeometry relative="1" as="geometry">
            <Array as="points">
              <mxPoint x="2250" y="710" />
              <mxPoint x="2250" y="710" />
            </Array>
          </mxGeometry>
        </mxCell>
        <mxCell id="xcy9PEi7Db68LJFW1NeO-178" style="edgeStyle=orthogonalEdgeStyle;rounded=0;orthogonalLoop=1;jettySize=auto;html=1;entryX=0.5;entryY=0;entryDx=0;entryDy=0;" parent="1" source="xcy9PEi7Db68LJFW1NeO-150" target="xcy9PEi7Db68LJFW1NeO-156" edge="1">
          <mxGeometry relative="1" as="geometry">
            <Array as="points">
              <mxPoint x="2340" y="710" />
              <mxPoint x="2340" y="710" />
            </Array>
          </mxGeometry>
        </mxCell>
        <mxCell id="xcy9PEi7Db68LJFW1NeO-179" style="edgeStyle=orthogonalEdgeStyle;rounded=0;orthogonalLoop=1;jettySize=auto;html=1;entryX=0.5;entryY=0;entryDx=0;entryDy=0;" parent="1" source="xcy9PEi7Db68LJFW1NeO-150" target="xcy9PEi7Db68LJFW1NeO-157" edge="1">
          <mxGeometry relative="1" as="geometry">
            <Array as="points">
              <mxPoint x="2430" y="710" />
              <mxPoint x="2430" y="710" />
            </Array>
          </mxGeometry>
        </mxCell>
        <mxCell id="xcy9PEi7Db68LJFW1NeO-150" value="" style="line;strokeWidth=2;html=1;" parent="1" vertex="1">
          <mxGeometry x="2120" y="690" width="350" height="10" as="geometry" />
        </mxCell>
        <mxCell id="xcy9PEi7Db68LJFW1NeO-188" style="edgeStyle=orthogonalEdgeStyle;rounded=0;orthogonalLoop=1;jettySize=auto;html=1;entryX=0.5;entryY=0;entryDx=0;entryDy=0;" parent="1" source="xcy9PEi7Db68LJFW1NeO-151" target="xcy9PEi7Db68LJFW1NeO-152" edge="1">
          <mxGeometry relative="1" as="geometry" />
        </mxCell>
        <mxCell id="xcy9PEi7Db68LJFW1NeO-151" value="Введення інформації про користувача" style="rounded=1;whiteSpace=wrap;html=1;" parent="1" vertex="1">
          <mxGeometry x="2640" y="680" width="120" height="60" as="geometry" />
        </mxCell>
        <mxCell id="xcy9PEi7Db68LJFW1NeO-193" style="edgeStyle=orthogonalEdgeStyle;rounded=0;orthogonalLoop=1;jettySize=auto;html=1;entryX=0.949;entryY=0.318;entryDx=0;entryDy=0;entryPerimeter=0;" parent="1" source="xcy9PEi7Db68LJFW1NeO-152" target="xcy9PEi7Db68LJFW1NeO-189" edge="1">
          <mxGeometry relative="1" as="geometry" />
        </mxCell>
        <mxCell id="xcy9PEi7Db68LJFW1NeO-152" value="Введення інформації про систему сонячних панелей" style="rounded=1;whiteSpace=wrap;html=1;" parent="1" vertex="1">
          <mxGeometry x="2640" y="770" width="120" height="60" as="geometry" />
        </mxCell>
        <mxCell id="xcy9PEi7Db68LJFW1NeO-181" style="edgeStyle=orthogonalEdgeStyle;rounded=0;orthogonalLoop=1;jettySize=auto;html=1;entryX=0.374;entryY=0.612;entryDx=0;entryDy=0;entryPerimeter=0;" parent="1" source="xcy9PEi7Db68LJFW1NeO-154" target="xcy9PEi7Db68LJFW1NeO-159" edge="1">
          <mxGeometry relative="1" as="geometry" />
        </mxCell>
        <mxCell id="xcy9PEi7Db68LJFW1NeO-154" value="Змінити логін" style="rounded=1;whiteSpace=wrap;html=1;" parent="1" vertex="1">
          <mxGeometry x="2210" y="730" width="80" height="60" as="geometry" />
        </mxCell>
        <mxCell id="xcy9PEi7Db68LJFW1NeO-180" style="edgeStyle=orthogonalEdgeStyle;rounded=0;orthogonalLoop=1;jettySize=auto;html=1;entryX=0.095;entryY=0.729;entryDx=0;entryDy=0;entryPerimeter=0;" parent="1" source="xcy9PEi7Db68LJFW1NeO-155" target="xcy9PEi7Db68LJFW1NeO-159" edge="1">
          <mxGeometry relative="1" as="geometry" />
        </mxCell>
        <mxCell id="xcy9PEi7Db68LJFW1NeO-155" value="Змнити пароль" style="rounded=1;whiteSpace=wrap;html=1;" parent="1" vertex="1">
          <mxGeometry x="2110" y="730" width="85" height="60" as="geometry" />
        </mxCell>
        <mxCell id="xcy9PEi7Db68LJFW1NeO-182" style="edgeStyle=orthogonalEdgeStyle;rounded=0;orthogonalLoop=1;jettySize=auto;html=1;entryX=0.626;entryY=0.494;entryDx=0;entryDy=0;entryPerimeter=0;" parent="1" source="xcy9PEi7Db68LJFW1NeO-156" target="xcy9PEi7Db68LJFW1NeO-159" edge="1">
          <mxGeometry relative="1" as="geometry" />
        </mxCell>
        <mxCell id="xcy9PEi7Db68LJFW1NeO-156" value="Змінити ім&#39;я" style="rounded=1;whiteSpace=wrap;html=1;" parent="1" vertex="1">
          <mxGeometry x="2300" y="730" width="80" height="60" as="geometry" />
        </mxCell>
        <mxCell id="xcy9PEi7Db68LJFW1NeO-183" style="edgeStyle=orthogonalEdgeStyle;rounded=0;orthogonalLoop=1;jettySize=auto;html=1;entryX=0.888;entryY=0.729;entryDx=0;entryDy=0;entryPerimeter=0;" parent="1" source="xcy9PEi7Db68LJFW1NeO-157" target="xcy9PEi7Db68LJFW1NeO-159" edge="1">
          <mxGeometry relative="1" as="geometry" />
        </mxCell>
        <mxCell id="xcy9PEi7Db68LJFW1NeO-157" value="Змінити фото" style="rounded=1;whiteSpace=wrap;html=1;" parent="1" vertex="1">
          <mxGeometry x="2390" y="730" width="80" height="60" as="geometry" />
        </mxCell>
        <mxCell id="xcy9PEi7Db68LJFW1NeO-191" style="edgeStyle=orthogonalEdgeStyle;rounded=0;orthogonalLoop=1;jettySize=auto;html=1;entryX=0.444;entryY=0.435;entryDx=0;entryDy=0;entryPerimeter=0;" parent="1" source="xcy9PEi7Db68LJFW1NeO-158" target="xcy9PEi7Db68LJFW1NeO-189" edge="1">
          <mxGeometry relative="1" as="geometry" />
        </mxCell>
        <mxCell id="xcy9PEi7Db68LJFW1NeO-158" value="Змінене вікно налаштування" style="rounded=1;whiteSpace=wrap;html=1;" parent="1" vertex="1">
          <mxGeometry x="2235" y="870" width="120" height="60" as="geometry" />
        </mxCell>
        <mxCell id="xcy9PEi7Db68LJFW1NeO-184" style="edgeStyle=orthogonalEdgeStyle;rounded=0;orthogonalLoop=1;jettySize=auto;html=1;entryX=0.5;entryY=0;entryDx=0;entryDy=0;" parent="1" source="xcy9PEi7Db68LJFW1NeO-159" target="xcy9PEi7Db68LJFW1NeO-158" edge="1">
          <mxGeometry relative="1" as="geometry" />
        </mxCell>
        <mxCell id="xcy9PEi7Db68LJFW1NeO-159" value="" style="line;strokeWidth=2;html=1;" parent="1" vertex="1">
          <mxGeometry x="2120" y="830" width="350" height="10" as="geometry" />
        </mxCell>
        <mxCell id="xcy9PEi7Db68LJFW1NeO-174" style="edgeStyle=orthogonalEdgeStyle;rounded=0;orthogonalLoop=1;jettySize=auto;html=1;entryX=0.5;entryY=0;entryDx=0;entryDy=0;" parent="1" source="xcy9PEi7Db68LJFW1NeO-160" target="xcy9PEi7Db68LJFW1NeO-163" edge="1">
          <mxGeometry relative="1" as="geometry" />
        </mxCell>
        <mxCell id="xcy9PEi7Db68LJFW1NeO-160" value="Пошук інформації" style="rounded=1;whiteSpace=wrap;html=1;" parent="1" vertex="1">
          <mxGeometry x="1960" y="680" width="120" height="60" as="geometry" />
        </mxCell>
        <mxCell id="xcy9PEi7Db68LJFW1NeO-186" style="edgeStyle=orthogonalEdgeStyle;rounded=0;orthogonalLoop=1;jettySize=auto;html=1;entryX=0.5;entryY=0;entryDx=0;entryDy=0;" parent="1" source="xcy9PEi7Db68LJFW1NeO-161" target="xcy9PEi7Db68LJFW1NeO-162" edge="1">
          <mxGeometry relative="1" as="geometry" />
        </mxCell>
        <mxCell id="xcy9PEi7Db68LJFW1NeO-161" value="Введення ключових слів" style="rounded=1;whiteSpace=wrap;html=1;" parent="1" vertex="1">
          <mxGeometry x="2481" y="680" width="120" height="60" as="geometry" />
        </mxCell>
        <mxCell id="xcy9PEi7Db68LJFW1NeO-192" style="edgeStyle=orthogonalEdgeStyle;rounded=0;orthogonalLoop=1;jettySize=auto;html=1;entryX=0.75;entryY=0.5;entryDx=0;entryDy=0;entryPerimeter=0;" parent="1" source="xcy9PEi7Db68LJFW1NeO-162" target="xcy9PEi7Db68LJFW1NeO-189" edge="1">
          <mxGeometry relative="1" as="geometry" />
        </mxCell>
        <mxCell id="xcy9PEi7Db68LJFW1NeO-162" value="Перегляд знайденої інформації" style="rounded=1;whiteSpace=wrap;html=1;" parent="1" vertex="1">
          <mxGeometry x="2481" y="770" width="120" height="60" as="geometry" />
        </mxCell>
        <mxCell id="xcy9PEi7Db68LJFW1NeO-175" style="edgeStyle=orthogonalEdgeStyle;rounded=0;orthogonalLoop=1;jettySize=auto;html=1;entryX=0.5;entryY=0;entryDx=0;entryDy=0;" parent="1" source="xcy9PEi7Db68LJFW1NeO-163" target="xcy9PEi7Db68LJFW1NeO-164" edge="1">
          <mxGeometry relative="1" as="geometry" />
        </mxCell>
        <mxCell id="xcy9PEi7Db68LJFW1NeO-163" value="Введення ключових слів" style="rounded=1;whiteSpace=wrap;html=1;" parent="1" vertex="1">
          <mxGeometry x="1960" y="780" width="120" height="60" as="geometry" />
        </mxCell>
        <mxCell id="xcy9PEi7Db68LJFW1NeO-190" style="edgeStyle=orthogonalEdgeStyle;rounded=0;orthogonalLoop=1;jettySize=auto;html=1;entryX=0.099;entryY=0.435;entryDx=0;entryDy=0;entryPerimeter=0;" parent="1" source="xcy9PEi7Db68LJFW1NeO-164" target="xcy9PEi7Db68LJFW1NeO-189" edge="1">
          <mxGeometry relative="1" as="geometry" />
        </mxCell>
        <mxCell id="xcy9PEi7Db68LJFW1NeO-164" value="Перегляд знайденої інформації" style="rounded=1;whiteSpace=wrap;html=1;" parent="1" vertex="1">
          <mxGeometry x="1960" y="870" width="120" height="60" as="geometry" />
        </mxCell>
        <mxCell id="xcy9PEi7Db68LJFW1NeO-195" style="edgeStyle=orthogonalEdgeStyle;rounded=0;orthogonalLoop=1;jettySize=auto;html=1;entryX=0.5;entryY=0;entryDx=0;entryDy=0;" parent="1" source="xcy9PEi7Db68LJFW1NeO-189" target="xcy9PEi7Db68LJFW1NeO-194" edge="1">
          <mxGeometry relative="1" as="geometry" />
        </mxCell>
        <mxCell id="xcy9PEi7Db68LJFW1NeO-189" value="" style="line;strokeWidth=2;html=1;" parent="1" vertex="1">
          <mxGeometry x="1940" y="960" width="800" height="10" as="geometry" />
        </mxCell>
        <mxCell id="xcy9PEi7Db68LJFW1NeO-194" value="Закриття додатку" style="rounded=1;whiteSpace=wrap;html=1;" parent="1" vertex="1">
          <mxGeometry x="2280" y="1010" width="120" height="60" as="geometry" />
        </mxCell>
      </root>
    </mxGraphModel>
  </diagram>
</mxfile>
